<?xml version="1.0" encoding="UTF-8" standalone="no"?>
<svg width="800" height="600" viewBox="0 0 800 600" xmlns="http://www.w3.org/2000/svg">
  <!-- Airport Building Silhouette -->
  <g fill-opacity="0.15" fill="#FFFFFF">
    <!-- Main Terminal Building -->
    <rect x="150" y="300" width="500" height="150" />
    
    <!-- Central Tower -->
    <rect x="350" y="100" width="100" height="200" />
    <polygon points="350,100 450,100 400,50" />
    
    <!-- Left Wing -->
    <rect x="50" y="350" width="100" height="100" />
    <path d="M 150,350 L 150,450 L 250,450 L 250,400 L 150,350 Z" />
    
    <!-- Right Wing -->
    <rect x="650" y="350" width="100" height="100" />
    <path d="M 650,350 L 650,450 L 550,450 L 550,400 L 650,350 Z" />
    
    <!-- Windows -->
    <rect x="180" y="330" width="20" height="30" />
    <rect x="220" y="330" width="20" height="30" />
    <rect x="260" y="330" width="20" height="30" />
    <rect x="300" y="330" width="20" height="30" />
    <rect x="340" y="330" width="20" height="30" />
    <rect x="380" y="330" width="20" height="30" />
    <rect x="420" y="330" width="20" height="30" />
    <rect x="460" y="330" width="20" height="30" />
    <rect x="500" y="330" width="20" height="30" />
    <rect x="540" y="330" width="20" height="30" />
    <rect x="580" y="330" width="20" height="30" />
    
    <!-- Tower Windows -->
    <rect x="370" y="150" width="15" height="15" />
    <rect x="395" y="150" width="15" height="15" />
    <rect x="370" y="180" width="15" height="15" />
    <rect x="395" y="180" width="15" height="15" />
    <rect x="370" y="210" width="15" height="15" />
    <rect x="395" y="210" width="15" height="15" />
    <rect x="370" y="240" width="15" height="15" />
    <rect x="395" y="240" width="15" height="15" />
    
    <!-- Entrance -->
    <rect x="375" y="400" width="50" height="50" />
    
    <!-- Runway -->
    <rect x="200" y="500" width="400" height="20" />
    <rect x="220" y="525" width="360" height="15" />
    <rect x="240" y="545" width="320" height="10" />
    
    <!-- Small details -->
    <circle cx="400" cy="425" r="10" />
  </g>
</svg>
